<?xml version="1.0" encoding="UTF-8" standalone="no"?>
<svg width="176px" height="91px" viewBox="0 0 176 91" version="1.1" xmlns="http://www.w3.org/2000/svg" xmlns:xlink="http://www.w3.org/1999/xlink">
    <defs>
        <polygon id="path-1" points="0 90.6986755 175.951479 90.6986755 175.951479 0.295900662 0 0.295900662"></polygon>
    </defs>
    <g id="Page-1" stroke="none" stroke-width="1" fill="none" fill-rule="evenodd">
        <g id="tiller-website-ipadpro-02-investment" transform="translate(-50.000000, -40.000000)">
            <g id="logo-msg" transform="translate(50.000000, 40.000000)">
                <g>
                    <polygon id="Fill-1" fill="#F06617" points="0 90.3610414 1.66145205 90.362548 1.67139726 80.0656871 0.0102465753 80.0638791"></polygon>
                    <polygon id="Fill-2" fill="#F06617" points="5.16367123 90.3669474 6.82482192 90.3687553 6.8389863 82.915795 12.5785753 90.3744805 14.08 90.3759871 14.0902466 80.0752089 12.4287945 80.0740036 12.4212603 87.5266626 6.67473973 80.0685798 5.17391781 80.0667719"></polygon>
                    <polygon id="Fill-3" fill="#F06617" points="20.3589507 90.3821341 22.4341836 90.3839421 26.3730877 80.0876838 24.6510603 80.0861772 21.4128411 88.6995381 18.2141014 80.0798493 16.4402384 80.0780414"></polygon>
                    <polygon id="Fill-4" fill="#F06617" points="28.7153945 90.3901192 36.226737 90.3976523 36.2282438 88.8389007 30.3783534 88.8331755 30.3810658 85.9856589 35.9359151 85.9910828 35.9374219 84.4326325 30.3822712 84.4272086 30.3855863 81.6532152 36.1390384 81.6589404 36.1408466 80.0974768 28.7253397 80.0899437"></polygon>
                    <g id="Group-49" transform="translate(0.000000, 0.005424)">
                        <path d="M46.0574521,82.3833245 C45.1825753,81.8243675 44.2109589,81.4995397 43.1652055,81.4983344 C41.7894521,81.4974305 40.8491781,82.0928477 40.8479726,83.0323775 C40.8473699,83.8854272 41.6490137,84.219596 42.9861918,84.4100331 L43.7010411,84.5070596 C45.3718356,84.7366689 47.0167123,85.4306192 47.0149041,87.3419205 C47.0127945,89.4391391 45.116274,90.5853775 42.8870411,90.5832682 C41.4886849,90.5817616 39.8115616,90.1150099 38.7447123,89.1938609 L39.6503288,87.873457 C40.3552329,88.5219073 41.6890959,89.0073411 42.8789041,89.0085464 C44.2260274,89.0097517 45.2850411,88.4369338 45.2856438,87.4874603 C45.2868493,86.6796093 44.4785753,86.3038576 42.971726,86.0968477 L42.1700822,85.983851 C40.6403288,85.7708146 39.1175068,85.0479371 39.1196164,83.1333212 C39.1214247,81.068043 40.9537534,79.9218046 43.1826849,79.9239139 C44.6841096,79.9254205 45.8669863,80.3469735 46.9055068,81.0370066 L46.0574521,82.3833245 L46.0574521,82.3833245 Z" id="Fill-5" fill="#F06617"></path>
                        <polygon id="Fill-7" fill="#F06617" points="49.0656658 81.6801536 52.397611 81.6831669 52.389474 90.4089219 54.0539397 90.4107298 54.0626795 81.6849748 57.394926 81.6879881 57.3964329 80.1135675 49.067474 80.1057331"></polygon>
                        <polygon id="Fill-9" fill="#F06617" points="75.7780055 90.4236265 77.4391562 90.4254344 77.4494027 80.147557 75.7882521 80.1460503"></polygon>
                        <polygon id="Fill-11" fill="#F06617" points="80.9286877 90.4294722 82.5898384 90.4312801 82.6037014 82.9945914 88.3306329 90.436704 89.8284411 90.4382106 89.8386877 80.1603331 88.1805507 80.1588265 88.1730164 87.5955152 82.4364411 80.1534026 80.9386329 80.1515947"></polygon>
                        <path d="M107.129181,82.1380765 L105.739564,83.0604308 C105.11814,82.1522387 104.098907,81.5773116 102.870222,81.575805 C100.772688,81.5736957 99.2287699,83.0923712 99.2263589,85.3083116 C99.2242493,87.524252 100.765756,89.0456394 102.862989,89.0477487 C104.081729,89.0486526 105.08951,88.5017487 105.728715,87.5751758 L107.077948,88.5677387 C106.204277,89.8525864 104.660962,90.6432619 102.861482,90.641454 C99.705537,90.6384407 97.4817288,88.3754937 97.4847425,85.3065036 C97.4880575,82.2375136 99.7160849,79.9790864 102.87203,79.9820997 C104.70014,79.9839076 106.322112,80.8001957 107.129181,82.1380765" id="Fill-13" fill="#F06617"></path>
                        <path d="M119.857205,85.3291934 C119.854192,88.3981834 117.626164,90.6566106 114.470219,90.6535974 C111.314274,90.6502828 109.090767,88.3873358 109.093781,85.318647 C109.096795,82.249657 111.324822,79.9912298 114.480767,79.994243 C117.636411,79.9972563 119.860219,82.2602033 119.857205,85.3291934 M110.835096,85.3201536 C110.833288,87.536094 112.371178,89.0577828 114.471726,89.0598921 C116.572575,89.0620013 118.113178,87.5433258 118.115589,85.3273854 C118.117699,83.111445 116.579808,81.5900576 114.47926,81.5879483 C112.378411,81.5858391 110.837205,83.1042132 110.835096,85.3201536" id="Fill-15" fill="#F06617"></path>
                        <polygon id="Fill-17" fill="#F06617" points="122.793723 90.4705728 124.454874 90.4723808 124.468737 83.0356921 130.195668 90.478106 131.693778 90.4793113 131.703723 80.2017351 130.045586 80.1999272 130.038052 87.6366159 124.301477 80.1945033 122.803668 80.1926954"></polygon>
                        <polygon id="Fill-19" fill="#F06617" points="134.078186 81.7753119 137.404405 81.7783252 137.395364 90.485398 139.053803 90.4866033 139.062241 81.7801331 142.388159 81.7831464 142.389967 80.2123417 134.079693 80.2039046"></polygon>
                        <path d="M148.996416,80.2189407 C151.360362,80.2213513 152.638773,81.2808083 152.636964,83.1951228 C152.635156,84.942805 151.296471,86.1023017 149.202252,86.1740169 L152.584827,90.5001328 L150.528882,90.4983248 L147.258718,86.1725103 L146.421512,86.171305 L146.417293,90.4941063 L144.755841,90.4922983 L144.766088,80.2147222 L148.996416,80.2189407 Z M146.426033,81.7716659 L146.422718,84.6640798 L148.946992,84.6664904 C150.284471,84.667997 150.907101,84.1843712 150.908307,83.1933149 C150.909211,82.2185301 150.252225,81.7755831 148.950005,81.7740765 L146.426033,81.7716659 Z" id="Fill-21" fill="#F06617"></path>
                        <g id="Group-25" transform="translate(154.602740, 79.850993)" fill="#F06617">
                            <path d="M11.0603041,5.52327815 C11.0572904,8.59226821 8.82926301,10.8506954 5.67331781,10.8476821 C2.5173726,10.8443675 0.293564384,8.58142053 0.296879452,5.51273179 C0.299893151,2.44374172 2.52792055,0.18531457 5.68356438,0.188327815 C8.83950959,0.19134106 11.0633178,2.45428808 11.0603041,5.52327815 M2.03819452,5.51423841 C2.0363863,7.73017881 3.57427671,9.25186755 5.67482466,9.25397682 C7.77567397,9.25608609 9.31989315,7.7374106 9.32200274,5.5214702 C9.3244137,3.3055298 7.78290685,1.78414238 5.6823589,1.78203311 C3.58150959,1.77992384 2.04030411,3.29829801 2.03819452,5.51423841" id="Fill-23"></path>
                        </g>
                        <polygon id="Fill-26" fill="#F06617" points="168.598899 90.5156811 175.949912 90.5229129 175.951419 89.2133566 175.951419 88.9515056 170.262159 88.9460818 170.270597 80.2399129 168.609145 80.2378036"></polygon>
                        <path d="M67.4375041,84.9324394 C67.4369014,85.5823964 66.9092027,86.1091116 66.2591479,86.1082076 C65.6087918,86.107605 65.0822986,85.5799858 65.0829014,84.9300288 C65.0835041,84.2797705 65.6112027,83.7533566 66.2612575,83.7539593 C66.9116137,83.7548632 67.4381068,84.2821811 67.4375041,84.9324394" id="Fill-28" fill="#F06617"></path>
                        <path d="M77.9158027,13.4718871 L84.9675562,13.4718871 L84.9675562,22.4917348 L91.3204329,22.4917348 L91.3204329,27.8908672 L84.9675562,27.8908672 L84.9675562,44.0249864 C84.9675562,47.2645262 85.7300219,48.0268772 88.7159945,48.0268772 L91.2568438,48.0268772 L91.2568438,53.6164467 L86.1112548,53.6164467 C79.3135562,53.6164467 77.9158027,51.77445 77.9158027,45.2953705 L77.9158027,27.8908672 L73.2147342,27.8908672 L73.2147342,22.4917348 L77.9158027,22.4917348 L77.9158027,13.4718871 Z" id="Fill-30" fill="#F06617"></path>
                        <mask id="mask-2" fill="white">
                            <use xlink:href="#path-1"></use>
                        </mask>
                        <g id="Clip-33"></g>
                        <path d="M94.4860822,18.5534536 L101.537836,18.5534536 L101.537836,11.4391821 L94.4860822,11.4391821 L94.4860822,18.5534536 Z M94.4860822,53.6164768 L101.537836,53.6164768 L101.537836,22.4917649 L94.4860822,22.4917649 L94.4860822,53.6164768 Z" id="Fill-32" fill="#F06617" mask="url(#mask-2)"></path>
                        <polygon id="Fill-34" fill="#F06617" mask="url(#mask-2)" points="105.031918 53.6164768 112.083671 53.6164768 112.083671 11.4391821 105.031918 11.4391821"></polygon>
                        <polygon id="Fill-35" fill="#F06617" mask="url(#mask-2)" points="115.831507 53.6164768 122.88326 53.6164768 122.88326 11.4391821 115.831507 11.4391821"></polygon>
                        <path d="M125.582751,38.1176702 C125.582751,28.5262099 131.745162,21.8563921 140.956833,21.8563921 C150.867682,21.8563921 156.64886,29.4154185 156.077162,40.2136834 L132.698093,40.2136834 C132.825271,45.3587993 136.255764,48.725498 141.020422,48.725498 C145.467436,48.725498 147.691244,46.6291834 148.771052,43.8343987 L155.568751,44.7236073 C154.107408,49.3606901 149.597107,54.378647 141.1476,54.378647 C130.79223,54.378647 125.582751,47.200796 125.582751,38.1176702 M132.698093,35.0049881 L148.89823,35.0049881 C148.707463,30.2410477 145.27697,27.2558258 141.020422,27.2558258 C136.891052,27.2558258 132.952148,29.6058556 132.698093,35.0049881" id="Fill-36" fill="#F06617" mask="url(#mask-2)"></path>
                        <path d="M175.951479,29.4789076 C174.808082,29.3517487 173.791562,29.2884705 172.711452,29.2884705 C168.327726,29.2884705 165.786575,31.2576262 165.786575,37.6095467 L165.786575,53.616507 L158.734822,53.616507 L158.734822,22.491795 L165.659699,22.491795 L165.659699,27.6369109 C167.374795,24.2702123 170.424356,22.491795 174.236082,22.4282156 C174.808082,22.4282156 175.443068,22.491795 175.951479,22.5550732 L175.951479,29.4789076 Z" id="Fill-37" fill="#F06617" mask="url(#mask-2)"></path>
                        <path d="M31.6826219,3.71093179 C31.6826219,5.59692185 30.1534712,7.12584238 28.2671973,7.12584238 C26.3809233,7.12584238 24.8517726,5.59692185 24.8517726,3.71093179 C24.8517726,1.82494172 26.3809233,0.296021192 28.2671973,0.296021192 C30.1534712,0.296021192 31.6826219,1.82494172 31.6826219,3.71093179" id="Fill-38" fill="#F06617" mask="url(#mask-2)"></path>
                        <path d="M6.83651507,18.0537371 C6.83651507,19.9397272 5.30736438,21.4686477 3.42109041,21.4686477 C1.53481644,21.4686477 0.00566575343,19.9397272 0.00566575343,18.0537371 C0.00566575343,16.167747 1.53481644,14.6388265 3.42109041,14.6388265 C5.30736438,14.6388265 6.83651507,16.167747 6.83651507,18.0537371" id="Fill-39" fill="#F06617" mask="url(#mask-2)"></path>
                        <path d="M6.83651507,46.739197 C6.83651507,48.6251871 5.30736438,50.1541076 3.42109041,50.1541076 C1.53481644,50.1541076 0.00566575343,48.6251871 0.00566575343,46.739197 C0.00566575343,44.853207 1.53481644,43.3242864 3.42109041,43.3242864 C5.30736438,43.3242864 6.83651507,44.853207 6.83651507,46.739197" id="Fill-40" fill="#F06617" mask="url(#mask-2)"></path>
                        <path d="M31.6826219,61.0819421 C31.6826219,62.9679321 30.1534712,64.4968526 28.2671973,64.4968526 C26.3809233,64.4968526 24.8517726,62.9679321 24.8517726,61.0819421 C24.8517726,59.195952 26.3809233,57.6670315 28.2671973,57.6670315 C30.1534712,57.6670315 31.6826219,59.195952 31.6826219,61.0819421" id="Fill-41" fill="#F06617" mask="url(#mask-2)"></path>
                        <path d="M56.5287288,46.739197 C56.5287288,48.6251871 54.9995781,50.1541076 53.1133041,50.1541076 C51.2270301,50.1541076 49.6978795,48.6251871 49.6978795,46.739197 C49.6978795,44.853207 51.2270301,43.3242864 53.1133041,43.3242864 C54.9995781,43.3242864 56.5287288,44.853207 56.5287288,46.739197" id="Fill-42" fill="#F06617" mask="url(#mask-2)"></path>
                        <path d="M56.5287288,18.0537371 C56.5287288,19.9397272 54.9995781,21.4686477 53.1133041,21.4686477 C51.2270301,21.4686477 49.6978795,19.9397272 49.6978795,18.0537371 C49.6978795,16.167747 51.2270301,14.6388265 53.1133041,14.6388265 C54.9995781,14.6388265 56.5287288,16.167747 56.5287288,18.0537371" id="Fill-43" fill="#F06617" mask="url(#mask-2)"></path>
                        <path d="M33.9623342,32.396452 C33.9623342,35.5413758 31.4124438,38.0908825 28.2670466,38.0908825 C25.1219507,38.0908825 22.5720603,35.5413758 22.5720603,32.396452 C22.5720603,29.2515281 25.1219507,26.7020215 28.2670466,26.7020215 C31.4124438,26.7020215 33.9623342,29.2515281 33.9623342,32.396452" id="Fill-44" fill="#F06617" mask="url(#mask-2)"></path>
                        <path d="M48.2002521,32.396452 C48.2002521,35.5413758 45.6503616,38.0908825 42.5049644,38.0908825 C39.3598685,38.0908825 36.8099781,35.5413758 36.8099781,32.396452 C36.8099781,29.2515281 39.3598685,26.7020215 42.5049644,26.7020215 C45.6503616,26.7020215 48.2002521,29.2515281 48.2002521,32.396452" id="Fill-45" fill="#F06617" mask="url(#mask-2)"></path>
                        <path d="M19.7244466,32.396452 C19.7244466,35.5413758 17.1745562,38.0908825 14.0291589,38.0908825 C10.8837616,38.0908825 8.3341726,35.5413758 8.3341726,32.396452 C8.3341726,29.2515281 10.8837616,26.7020215 14.0291589,26.7020215 C17.1745562,26.7020215 19.7244466,29.2515281 19.7244466,32.396452" id="Fill-46" fill="#F06617" mask="url(#mask-2)"></path>
                        <path d="M33.9623342,18.1607073 C33.9623342,21.3056311 31.4124438,23.8551377 28.2670466,23.8551377 C25.1219507,23.8551377 22.5720603,21.3056311 22.5720603,18.1607073 C22.5720603,15.0157834 25.1219507,12.4662768 28.2670466,12.4662768 C31.4124438,12.4662768 33.9623342,15.0157834 33.9623342,18.1607073" id="Fill-47" fill="#F06617" mask="url(#mask-2)"></path>
                        <path d="M33.9623342,46.632257 C33.9623342,49.7771808 31.4124438,52.3266874 28.2670466,52.3266874 C25.1219507,52.3266874 22.5720603,49.7771808 22.5720603,46.632257 C22.5720603,43.4873331 25.1219507,40.9378265 28.2670466,40.9378265 C31.4124438,40.9378265 33.9623342,43.4873331 33.9623342,46.632257" id="Fill-48" fill="#F06617" mask="url(#mask-2)"></path>
                    </g>
                </g>
            </g>
        </g>
    </g>
</svg>